<svg xmlns="http://www.w3.org/2000/svg" width="23" height="22" fill="none">
  <path fill="#000" fill-rule="evenodd" d="M7.837 0h8.25a6.876 6.876 0 0 1 6.875 6.875v8.25A6.876 6.876 0 0 1 16.087 22h-8.25a6.876 6.876 0 0 1-6.875-6.875v-8.25A6.876 6.876 0 0 1 7.837 0Zm8.25 19.938a4.818 4.818 0 0 0 4.812-4.813v-8.25a4.818 4.818 0 0 0-4.812-4.813h-8.25a4.818 4.818 0 0 0-4.813 4.813v8.25a4.818 4.818 0 0 0 4.813 4.813h8.25Z" clip-rule="evenodd"/>
  <path fill="#000" fill-rule="evenodd" d="M6.462 11a5.5 5.5 0 1 1 11 0 5.5 5.5 0 0 1-11 0Zm2.062 0a3.442 3.442 0 0 0 3.438 3.438A3.442 3.442 0 0 0 15.399 11a3.441 3.441 0 0 0-3.437-3.438A3.441 3.441 0 0 0 8.524 11Z" clip-rule="evenodd"/>
  <circle cx="17.874" cy="5.088" r=".733" fill="#000"/>
</svg>
