<svg xmlns="http://www.w3.org/2000/svg" width="408" height="442" fill="none">
  <path fill="url(#a)" d="m204-138 2.813 319.256 52.721-314.885-47.164 315.765 101.331-302.761-95.98 304.499L365.167-99.307 222.734 186.429l189.93-256.63-185.378 259.937L455.023-34.023 231.264 193.714 491.201 8.336l-256.63 189.93L520.307 55.833 237.126 203.28l304.499-95.98L238.864 208.63l315.765-47.164-314.885 52.721L559 217l-319.256 2.813 314.885 52.721-315.765-47.164 302.761 101.331-304.499-95.98 283.181 147.446-285.736-142.433 256.63 189.93-259.937-185.378 223.759 227.737-227.737-223.759 185.378 259.937-189.93-256.63 142.433 285.736-147.446-283.181 95.98 304.499L212.37 251.864l47.164 315.765-52.721-314.885L204 572l-2.813-319.256-52.721 314.885 47.164-315.765L94.299 554.625l95.98-304.499L42.833 533.307l142.433-285.736-189.93 256.63 185.378-259.937-227.737 223.759 223.759-227.737-259.937 185.378 256.63-189.93-285.736 142.433 283.181-147.446-304.499 95.98L169.136 225.37l-315.765 47.164 314.885-52.721L-151 217l319.256-2.813-314.885-52.721 315.765 47.164-302.761-101.331 304.499 95.98-283.181-147.446 285.736 142.433-256.63-189.93 259.937 185.378L-47.023-34.023l227.737 223.759L-4.664-70.201l189.93 256.63L42.833-99.307 190.28 183.874l-95.98-304.499L195.63 182.136l-47.164-315.765 52.721 314.885L204-138Z"/>
  <defs>
    <radialGradient id="a" cx="0" cy="0" r="1" gradientTransform="matrix(0 215.5 -215.5 0 204 217)" gradientUnits="userSpaceOnUse">
      <stop stop-color="#3A795B"/>
      <stop offset="1" stop-color="#3A795B" stop-opacity="0"/>
    </radialGradient>
  </defs>
</svg>